<?xml version="1.0" standalone="no"?>
<!DOCTYPE svg PUBLIC "-//W3C//DTD SVG 20010904//EN"
 "http://www.w3.org/TR/2001/REC-SVG-20010904/DTD/svg10.dtd">
<svg version="1.0" xmlns="http://www.w3.org/2000/svg"
 width="1024.000000pt" height="1024.000000pt" viewBox="0 0 1024.000000 1024.000000"
 preserveAspectRatio="xMidYMid meet">

<g transform="translate(0.000000,1024.000000) scale(0.100000,-0.100000)"
fill="#000000" stroke="none">
<path d="M1970 9603 c-372 -40 -743 -235 -978 -515 -173 -206 -275 -415 -335
-682 l-22 -101 0 -3340 c0 -3167 1 -3345 18 -3428 110 -542 499 -979 1019
-1146 101 -32 245 -61 304 -61 19 0 34 -4 34 -10 0 -7 1045 -10 3115 -10 2070
0 3115 3 3115 10 0 6 16 10 34 10 19 0 82 9 139 20 416 80 783 342 1002 715
99 168 176 394 191 563 4 39 11 72 15 72 13 0 12 6517 -1 6525 -6 3 -10 22
-10 40 0 19 -9 79 -19 133 -123 631 -649 1123 -1286 1201 -64 8 -992 10 -3195
9 -1708 0 -3121 -3 -3140 -5z m5107 -1406 c206 -42 439 -141 584 -248 147
-108 357 -339 452 -496 59 -99 117 -232 147 -337 52 -185 50 -118 50 -2092 0
-2029 3 -1918 -62 -2124 -86 -272 -279 -539 -507 -704 -161 -115 -362 -203
-558 -243 -83 -17 -198 -18 -1973 -18 -1799 0 -1889 1 -1970 19 -305 66 -508
178 -747 410 -210 204 -318 364 -396 591 -78 226 -72 54 -72 2160 0 1746 1
1886 17 1965 129 631 629 1076 1273 1133 22 2 859 3 1860 2 1660 -1 1827 -3
1902 -18z"/>
<path d="M3100 5351 c0 -951 4 -1487 10 -1522 39 -204 219 -377 425 -409 48
-7 554 -10 1635 -8 l1565 3 67 26 c134 52 224 130 286 248 64 119 62 50 62
1664 l0 1467 -2025 0 -2025 0 0 -1469z m3678 -190 c-3 -1286 -3 -1290 -24
-1318 -11 -15 -36 -36 -55 -45 -32 -17 -128 -18 -1579 -18 -1524 0 -1545 0
-1578 20 -18 11 -41 34 -52 52 -20 32 -20 53 -20 1316 l0 1282 1655 0 1655 0
-2 -1289z"/>
<path d="M6175 6162 c-74 -26 -114 -59 -141 -116 -28 -59 -30 -102 -8 -154 29
-71 71 -102 236 -171 31 -13 52 -29 60 -47 11 -24 10 -29 -17 -51 -26 -23 -35
-25 -99 -20 -39 2 -91 12 -116 20 -24 9 -46 15 -48 13 -5 -6 -31 -118 -32
-138 0 -23 79 -48 175 -55 202 -14 335 76 335 226 0 108 -46 162 -190 221
-100 41 -120 55 -120 86 0 19 8 28 37 41 37 15 74 13 184 -13 25 -6 27 -3 43
60 9 36 16 70 16 75 0 19 -102 41 -184 41 -50 -1 -100 -7 -131 -18z"/>
<path d="M3722 5813 l3 -358 88 -3 88 -3 -2 241 c-1 132 1 243 4 247 4 3 7 0
7 -9 0 -8 52 -119 115 -246 l114 -232 101 0 100 0 0 360 0 360 -86 0 -87 0 5
-225 c2 -124 1 -222 -2 -218 -4 5 -15 28 -24 53 -10 24 -57 122 -104 217 l-87
173 -118 0 -117 0 2 -357z"/>
<path d="M4480 5810 l0 -360 240 0 240 0 0 80 0 80 -145 0 -145 0 0 65 0 64
128 3 127 3 0 75 0 75 -128 3 -128 3 3 57 3 57 138 3 137 3 0 74 0 75 -235 0
-235 0 0 -360z"/>
<path d="M5107 5813 c45 -197 83 -359 83 -360 0 -2 47 -3 104 -3 91 0 105 2
110 18 12 39 76 395 76 422 0 17 3 30 8 30 4 0 20 -78 35 -172 15 -95 32 -201
38 -236 l11 -63 105 3 105 3 75 300 c41 165 80 326 88 358 l13 57 -98 0 -97 0
-6 -42 c-4 -24 -18 -117 -32 -208 -14 -91 -28 -182 -31 -203 -3 -21 -8 -36
-10 -34 -3 2 -15 78 -29 168 -13 90 -29 199 -36 242 l-13 77 -102 0 c-88 0
-102 -2 -106 -17 -3 -10 -22 -120 -44 -245 -21 -126 -42 -228 -45 -228 -4 0
-9 24 -13 53 -9 70 -55 375 -62 410 l-6 27 -102 0 -102 0 83 -357z"/>
<path d="M3710 5160 l0 -90 833 2 832 3 3 88 3 87 -836 0 -835 0 0 -90z"/>
<path d="M5530 4620 l0 -630 505 0 505 0 0 630 0 630 -505 0 -505 0 0 -630z"/>
<path d="M3710 4800 l0 -90 835 0 835 0 0 90 0 90 -835 0 -835 0 0 -90z"/>
<path d="M3710 4440 l0 -90 835 0 835 0 0 90 0 90 -835 0 -835 0 0 -90z"/>
<path d="M3710 4080 l0 -90 835 0 836 0 -3 88 -3 87 -832 3 -833 2 0 -90z"/>
</g>
</svg>
